<svg version="1.1" xmlns="http://www.w3.org/2000/svg" viewBox="880 110 1140 586" width="570" height="296">
<path transform="translate(0,0)" fill="#FFFFFF" d="M 0 0 L 2048 0 L 2048 978 L 0 978 L 0 0 z"/>
<path transform="translate(0,0)" fill="rgb(56,148,199)" d="M 1289.43 144.475 C 1311.7 144.077 1333.97 143.958 1356.24 144.116 C 1368.3 144.168 1381.56 143.325 1393.42 145.439 C 1397.34 146.138 1400.36 147.195 1403.29 149.978 C 1434.82 179.871 1447.52 351.969 1453.59 400.565 C 1457.67 433.591 1462.55 466.513 1468.23 499.301 C 1471.22 517.042 1474.14 538.04 1479.25 555.022 C 1484.05 588.085 1495.62 634.094 1519.72 658.081 C 1521.58 659.938 1524.72 661.533 1525.05 663.844 L 1522.91 664.824 L 1458.27 665.45 C 1446.62 665.48 1434.02 666.402 1422.55 664.406 C 1417.22 663.48 1412.63 661.777 1408.23 658.598 C 1366.23 628.268 1354.31 492.463 1345.77 442.672 C 1342.95 446.643 1340.05 463.68 1338.56 469.706 C 1334.72 484.693 1330.74 499.644 1326.62 514.558 C 1318.5 544 1303.58 602.804 1269.04 608.715 C 1265.12 609.385 1258.86 609.611 1254.9 609.467 C 1251.54 603.458 1242.64 593.223 1237.48 584.43 C 1223.56 560.681 1213.17 519.302 1211.96 491.562 C 1224.59 423.386 1233.65 354.583 1244.38 286.151 C 1248.21 261.69 1259.92 146.922 1289.43 144.475 z"/>
<path transform="translate(0,0)" fill="rgb(24,109,167)" d="M 1211.96 491.562 C 1224.59 423.386 1233.65 354.583 1244.38 286.151 C 1248.21 261.69 1259.92 146.922 1289.43 144.475 C 1295.06 153.698 1304.13 168.884 1307.08 179.001 C 1318.62 218.701 1324.53 263.473 1329.86 304.398 C 1336.11 350.376 1341.41 396.477 1345.77 442.672 C 1342.95 446.643 1340.05 463.68 1338.56 469.706 C 1334.72 484.693 1330.74 499.644 1326.62 514.558 C 1318.5 544 1303.58 602.804 1269.04 608.715 C 1265.12 609.385 1258.86 609.611 1254.9 609.467 C 1251.54 603.458 1242.64 593.223 1237.48 584.43 C 1223.56 560.681 1213.17 519.302 1211.96 491.562 z"/>
<path transform="translate(0,0)" fill="rgb(185,16,89)" d="M 1805.03 295.656 L 1868.91 295.274 C 1886.63 295.238 1913.2 292.029 1925.92 305.995 C 1946.98 329.115 1954.19 362.503 1961.38 392.154 C 1968.46 422.089 1971.8 438.061 1997.11 457.125 C 1975.37 457.782 1953.62 458.05 1931.87 457.929 C 1901.56 457.95 1873.32 462.896 1859.83 428.698 C 1855.66 435.156 1855.49 451.346 1853.41 459.379 C 1843.2 498.757 1833.13 591.483 1776.74 586.827 C 1776.34 584.959 1768.15 575.541 1766.21 572.92 C 1747.73 547.988 1738.9 514.179 1734.38 483.86 C 1736.58 482.954 1737.01 480.877 1737.5 478.547 C 1747.37 431.479 1752.63 382.985 1767.14 337.009 C 1772.74 319.263 1784.4 297.478 1805.03 295.656 z"/>
<path transform="translate(0,0)" fill="rgb(220,56,111)" d="M 1805.03 295.656 L 1868.91 295.274 C 1886.63 295.238 1913.2 292.029 1925.92 305.995 C 1946.98 329.115 1954.19 362.503 1961.38 392.154 C 1968.46 422.089 1971.8 438.061 1997.11 457.125 C 1975.37 457.782 1953.62 458.05 1931.87 457.929 C 1901.56 457.95 1873.32 462.896 1859.83 428.698 C 1860.21 426.343 1858.08 414.744 1857.58 411.999 C 1851.31 377.32 1834.05 315.896 1805.03 295.656 z"/>
<path transform="translate(0,0)" fill="rgb(45,159,74)" d="M 1130.25 218.898 C 1138.22 219.512 1144.86 221.568 1149.79 228.167 C 1172.49 258.535 1180.29 320.996 1186.96 357.817 L 1201.66 440.029 C 1204.6 456.865 1206.78 475.387 1211.96 491.562 C 1213.17 519.302 1223.56 560.681 1237.48 584.43 C 1242.64 593.223 1251.54 603.458 1254.9 609.467 C 1237.52 609.547 1154.23 611.744 1145.33 605.773 C 1107.38 580.292 1091.44 473.662 1080.27 428.987 C 1077.51 417.947 1077.11 405.524 1074.93 394.582 C 1074.75 393.68 1074.49 393.878 1073.3 393.273 C 1081.67 344.328 1092.25 251.802 1130.25 218.898 z"/>
<path transform="translate(0,0)" fill="rgb(101,32,126)" d="M 1479.25 555.022 C 1483.09 548.768 1485.01 520.955 1486.54 511.151 L 1503.73 406.874 C 1509.96 368.989 1518.36 308.723 1533.62 274.655 C 1537 267.152 1541.97 260.478 1548.19 255.097 C 1554.48 249.719 1558.95 247.294 1566.95 247.94 C 1571.03 258.281 1579.63 269.32 1582.99 280.306 C 1595.68 321.779 1605.77 365.329 1613.35 408.032 C 1609.77 416.888 1608.55 430.772 1607.06 440.427 C 1600 485.975 1594.56 532.604 1583.75 577.44 C 1576.42 607.826 1562.52 665.642 1522.91 664.824 L 1525.05 663.844 C 1524.72 661.533 1521.58 659.938 1519.72 658.081 C 1495.62 634.094 1484.05 588.085 1479.25 555.022 z"/>
<path transform="translate(0,0)" fill="rgb(239,148,20)" d="M 1566.95 247.94 C 1590.47 248.016 1636.47 244.522 1656.88 250.536 C 1661.53 251.905 1665.33 254.326 1668.77 257.725 C 1699.13 287.756 1723.3 436.307 1734.38 483.86 C 1738.9 514.179 1747.73 547.988 1766.21 572.92 C 1768.15 575.541 1776.34 584.959 1776.74 586.827 C 1754.06 585.875 1680.76 590.876 1664.66 580.688 C 1656.89 575.772 1650.96 567.978 1647.24 559.631 C 1638.72 540.482 1636.2 517.65 1632.06 497.157 C 1626.19 467.372 1619.96 437.662 1613.35 408.032 C 1605.77 365.329 1595.68 321.779 1582.99 280.306 C 1579.63 269.32 1571.03 258.281 1566.95 247.94 z"/>
<path transform="translate(0,0)" fill="rgb(237,220,53)" d="M 911.957 458.411 C 922.377 451.321 932.265 444.156 939.942 434.014 C 976.511 385.705 980.982 259.347 1013.44 226.951 C 1017.09 223.308 1020.93 221.234 1025.94 220.099 C 1038.59 217.234 1053.5 218.668 1066.45 218.696 L 1130.25 218.898 C 1092.25 251.802 1081.67 344.328 1073.3 393.273 C 1068.98 408.808 1060.31 432.221 1049.16 444.278 C 1043.57 450.427 1036.23 454.726 1028.13 456.605 C 1018.26 458.805 999.877 457.621 989.029 457.756 C 963.441 458.075 937.521 457.484 911.957 458.411 z"/>
</svg>